<svg width="108" height="108" viewBox="0 0 108 108" fill="none" xmlns="http://www.w3.org/2000/svg">
<mask id="mask0_2059_2901" style="mask-type:luminance" maskUnits="userSpaceOnUse" x="0" y="0" width="108" height="108">
<path fill-rule="evenodd" clip-rule="evenodd" d="M54 2.36041e-06C10.8 4.72083e-07 -4.72083e-07 10.8 -2.36041e-06 54C-4.24875e-06 97.2 10.8 108 54 108C97.2 108 108 97.2 108 54C108 10.8 97.2 4.24875e-06 54 2.36041e-06Z" fill="white"/>
</mask>
<g mask="url(#mask0_2059_2901)">
<rect width="108" height="108" fill="#FFEECE"/>
<rect width="108" height="108" stroke="black" stroke-width="0.25" stroke-linejoin="bevel"/>
<rect width="108" height="108" stroke="black" stroke-width="0.25" stroke-linejoin="bevel"/>
<rect width="108" height="108" fill="url(#paint0_linear_2059_2901)"/>
<rect x="21" y="34.25" width="66" height="39.5" rx="5" fill="#CDD6F4"/>
<circle cx="39.875" cy="53.875" r="10.125" fill="#1E1E2E"/>
<rect x="54" y="47" width="24.25" height="1.5" rx="0.25" fill="#1E1E2E"/>
<rect x="54" y="53.25" width="24.25" height="1.5" rx="0.25" fill="#1E1E2E"/>
<rect x="54" y="59.5" width="24.25" height="1.5" rx="0.25" fill="#1E1E2E"/>
</g>
<defs>
<linearGradient id="paint0_linear_2059_2901" x1="-2.75" y1="-1.75" x2="108" y2="108" gradientUnits="userSpaceOnUse">
<stop stop-color="#1E1E2E"/>
<stop offset="0.988775" stop-color="#181825"/>
</linearGradient>
</defs>
</svg>
