<svg width="108" height="108" viewBox="0 0 108 108" fill="none" xmlns="http://www.w3.org/2000/svg">
<path fill-rule="evenodd" clip-rule="evenodd" d="M21 42.25C21 39.4497 21 38.0496 21.545 36.98C22.0243 36.0392 22.7892 35.2743 23.73 34.795C24.7996 34.25 26.1997 34.25 29 34.25H79C81.8003 34.25 83.2004 34.25 84.27 34.795C85.2108 35.2743 85.9757 36.0392 86.455 36.98C87 38.0496 87 39.4497 87 42.25V65.75C87 68.5503 87 69.9504 86.455 71.02C85.9757 71.9608 85.2108 72.7257 84.27 73.205C83.2004 73.75 81.8003 73.75 79 73.75H29C26.1997 73.75 24.7996 73.75 23.73 73.205C22.7892 72.7257 22.0243 71.9608 21.545 71.02C21 69.9504 21 68.5503 21 65.75V42.25ZM50 53.875C50 59.4669 45.4669 64 39.875 64C34.2831 64 29.75 59.4669 29.75 53.875C29.75 48.2831 34.2831 43.75 39.875 43.75C45.4669 43.75 50 48.2831 50 53.875ZM54.25 47C54.1119 47 54 47.1119 54 47.25V48.25C54 48.3881 54.1119 48.5 54.25 48.5H78C78.1381 48.5 78.25 48.3881 78.25 48.25V47.25C78.25 47.1119 78.1381 47 78 47H54.25ZM54 53.5C54 53.3619 54.1119 53.25 54.25 53.25H78C78.1381 53.25 78.25 53.3619 78.25 53.5V54.5C78.25 54.6381 78.1381 54.75 78 54.75H54.25C54.1119 54.75 54 54.6381 54 54.5V53.5ZM54.25 59.5C54.1119 59.5 54 59.6119 54 59.75V60.75C54 60.8881 54.1119 61 54.25 61H78C78.1381 61 78.25 60.8881 78.25 60.75V59.75C78.25 59.6119 78.1381 59.5 78 59.5H54.25Z" fill="#4F378B"/>
</svg>
